<?xml version="1.0" encoding="utf-8"?>
<!-- Generator: Adobe Illustrator 24.1.1, SVG Export Plug-In . SVG Version: 6.00 Build 0)  -->
<svg version="1.1" id="레이어_1" xmlns="http://www.w3.org/2000/svg" xmlns:xlink="http://www.w3.org/1999/xlink" x="0px"
	 y="0px" viewBox="0 0 1366 768" style="enable-background:new 0 0 1366 768;" xml:space="preserve">
<style type="text/css">
	.st0{fill:#FFD900;}
	.st1{fill:#6FBA2C;}
	.st2{fill:#004EA2;}
	.st3{fill-rule:evenodd;clip-rule:evenodd;fill:#004EA2;}
	.st4{fill:#4D5357;}
	.st5{fill:#05B4B3;}
	.st6{fill:#0054A7;}
	.st7{fill:#00A0E9;}
	.st8{fill:#007ECA;}
	.st9{fill:#9BCB6C;}
	.st10{fill:#595757;}
</style>
<g id="레이어_2_1_">
	<g id="레이어_1_사본">
		<path class="st0" d="M699.8,331.4c-0.6,0-1.3,0.9-1.3,0.9c-7.3,12.1-17.7,22.1-30.1,28.9l0,0c-18.3,10.5-30.3,10.5-46.6,15.4
			c-0.3,2.5-0.8,5-1.5,7.5c7.1-0.8,13.9-1.1,19.9-1.5c0,0,5.6-0.2,12.6-0.9c12.8-1.3,27.2-3.8,37.4-17.6c0,0,9.1-11.4,10.4-31.3
			C700.5,331.8,700.2,331.4,699.8,331.4z"/>
		<path class="st1" d="M668.4,361.3c5.6-11.3,2.2-23.6,2.2-23.6c-0.3-1.1-0.6-1.5-0.9-1.5c-0.5,0-0.9,1-0.9,1
			c-3.5,8-9,16.4-15.6,21.6c-10,8.1-24.6,12.8-24.6,12.8c-2.3,0.9-4.4,1.7-6.4,2.5c-0.1,0.8-0.2,1.7-0.3,2.6
			C638.2,371.8,650.1,371.8,668.4,361.3L668.4,361.3z"/>
		<path class="st0" d="M597.9,384.5l-0.2,0.1c-4.6,2.7-8.9,6-12.7,9.8l0.1-0.1c-0.2,0.2-0.4,0.3-0.5,0.5c7-4.1,14.7-7,22.7-8.6
			c0.3-1.1,0.6-2.2,0.9-3.4c0.2-0.8,0.4-1.6,0.6-2.4c0.1-0.3,0.1-0.6,0.2-1C604.2,381.5,600.6,383.2,597.9,384.5z"/>
		<path class="st2" d="M621.6,364.6c-2.4-3.5-11.9-4.7-11.9-4.7c-4.7-0.8-2.5,3.5-1.2,5.4c0.4,0.7,0.6,1.5,0.7,2.3
			c0.7,10-1.1,15.3-1.1,15.3c-6.5,28.2-21.3,30.8-21.3,30.8c-4.2,0.8-6.5,0.3-8-1.1c-3.1-3.1-1.1-7.7-1.1-7.7
			c1.3-3.5,4-7.1,7.3-10.4c2.9-2.8,6-5.4,9.3-7.7l0.2-0.1c1.1-0.7,2.1-1.4,3.2-2l0,0l0.3-0.2c-22.5,9.7-25.6,21.4-25.6,21.4
			c-1.9,5.4,0,10.6,2.7,13.1c4.8,4.6,13,3,13,3c19-3.8,27.8-24.4,27.8-24.4C625,375.7,621.6,364.6,621.6,364.6z"/>
		<path class="st3" d="M634.1,396c-8,1.7-11.5,12-11.5,12c-0.9,3.1,0.6,3.1,0.6,3.1c2.7-0.2,10.8-10.6,10.8-10.6
			c0.9-1.5,2.8-1.9,4.3-1c0.1,0.1,0.2,0.2,0.4,0.3c2.4,2.1-0.1,5.3-0.1,5.3c-2,3.4-3.2,7.2-3.4,11.1c0.5,1.4-1.8,0.5-1.8,0.5
			c-4.1-1.9-2.9-8-2.9-8c0.3-1.3-0.9-0.1-0.9-0.1c-4.2,5.5-8.2,7.1-8.2,7.1c-7.4,2.8-5.8-4.3-5.8-4.3c1-7.4,5.8-13.7,12.6-16.7
			c8.7-2.4,11.2,1.4,11.2,1.4c1,2.1-0.5,2.2-0.5,2.2c-0.7,0-1.4-0.3-1.8-0.8C636.3,396.4,635.2,395.9,634.1,396z"/>
		<path class="st3" d="M649.3,394c0,0-6.8,9.7-9.1,16.7c0,0-1.8,4.2,1.7,5.4c0,0,0.3,0.3,2.2,0.2c0,0,6.4-12.7,14.6-17.1
			c0,0,2.1-0.6,0.8,1.7c0,0-6.6,11.1-1.6,14.7c0,0,0.5,0.7,2.4,0.7c0,0,0.8,0.1,0.5-1.3c0,0-0.8-2.4,6.1-14.9c0,0,2.6-3.1,0.2-4.9
			c0,0-1.8-2.1-6.8,0.4c0,0-7.1,4.3-9.8,8c0,0,1.2-2.5,1.7-3.4C652.1,400.2,655.8,394.5,649.3,394z"/>
		<path class="st3" d="M721.9,393.9c-6.7,0.9-12.5,5.2-15.3,11.4c0,0-3.9,8.1,0.3,11.1c0,0,3.3,2.3,9.7-0.8c2.2-1.2,4.3-2.7,6.1-4.5
			c0,0,0.5-0.7,0-1c0,0-0.4-0.5-1.2,0.1c0,0-4.6,3.7-7.9,3.3c0,0-3.9-0.2-0.2-7.8c10.3,0.2,12.7-6.5,12.7-6.5
			S728.4,393.7,721.9,393.9z M723.4,397.9c-2,3.5-5.6,5.9-9.6,6.2c1.9-3.4,4.8-6.1,8.3-7.7C722.1,396.4,723.8,395.9,723.4,397.9z"/>
		<path class="st3" d="M742.5,395.6c0.1-0.5-0.2-1-0.6-1.3c0,0-7.5-2.6-13.4,6.9c0,0-3.9,6-2.9,11.2c0,0,0.2,5.6,7.1,3.8
			c0,0,7.1-1.8,11.4-11c0,0,2.2-4.5,1.3-7.6c0,0-0.3-1.2-1.3-1.1c0,0-1.2-0.2-1.6,1.9c0,0-0.9,7.9-6.9,13.1c0,0-2.1,1.5-3.4,0.4
			c0,0-2.3-2.3,2.4-10.7C734.6,401.3,738.2,395.5,742.5,395.6z"/>
		<path class="st3" d="M694.7,413.8c1.6-2.3-0.3-11.6-0.3-11.6c-0.4-3.4,1.5-6.6,4.7-7.8c3.1-1,6.5-0.3,9,1.8
			c1.4,1.7,0.4,2.4,0.4,2.4c-0.7,0.3-1.5,0.1-2-0.5c-1-1.7-2.1-1.4-2.1-1.4s-3.6-0.4-3.5,9.3c0,0,0.2,6-0.5,7.6
			c-0.4,1-1.1,1.9-1.9,2.6c0,0-3.9,2.6-8.1-1.2c-0.8-0.8-1.3-1.8-1.4-2.9c0,0,0-1.7,1.4-0.3C690.3,411.7,693.3,415.1,694.7,413.8z"
			/>
		<path class="st3" d="M681.7,407.8c0,0-4.1,5.8-9.6,7.9c-7.3,2.7-5.9-4.2-5.9-4.2c1.2-7.3,6.1-13.5,12.9-16.4c7.7-2.7,11,1,11,1
			c0.5,0.5,0.5,1.3,0,1.9c0,0,0,0,0,0c-1.1,0.8-2.4-0.6-2.4-0.6c-0.6-0.8-1.7-1.2-2.7-1.1c-8.1,1.7-11.4,11.7-11.4,11.7
			c-1,3,0.5,2.9,0.5,2.9c2.7-0.4,9.7-9.5,9.7-9.5c2.4-2.6,4.1-1.1,4.1-1.1s2.2,1.8,1,6c-1.8,6.5-4.8,12.7-8.7,18.3
			c0,0-6.1,9-15.3,6.5c0,0-0.9-0.2-1.1-0.7c-0.2-0.4-0.1-0.8,0.2-1c0,0,0.5-0.4,1.4,0.2c1.8,0.5,3.8,0.2,5.2-1
			c6.8-4.6,11.3-20.2,11.3-20.2c0.1-0.2,0.1-0.5,0.1-0.8C682.1,407.5,682.1,407.3,681.7,407.8"/>
		<path class="st3" d="M754.4,394c0,0-6.8,9.7-9.1,16.7c0,0-1.8,4.2,1.7,5.4c0,0,0.3,0.3,2.2,0.2c0,0,6.4-12.7,14.6-17.1
			c0,0,2.1-0.6,0.8,1.7c0,0-6.6,11.1-1.6,14.7c0,0,0.5,0.7,2.4,0.7c0,0,0.8,0.1,0.5-1.3c0,0-0.8-2.4,6.1-14.9c0,0,2.6-3.1,0.2-4.9
			c0,0-1.8-2.1-6.8,0.4c0,0-7.1,4.3-9.8,8c0,0,1.2-2.5,1.7-3.4C757.2,400.2,760.9,394.5,754.4,394z"/>
		<path class="st3" d="M786.7,407.8c0,0-4.2,5.5-9.6,7.9c-7.4,2.8-5.8-4.3-5.8-4.3c1.1-7.3,5.9-13.6,12.8-16.4c7.7-2.7,11,1,11,1
			c0.5,0.5,0.5,1.4,0,1.9c0,0,0,0,0,0c-1.1,0.8-2.4-0.6-2.4-0.6c-0.7-0.8-1.7-1.3-2.8-1.1c-8,1.7-11.3,11.7-11.3,11.7
			c-1,3,0.5,2.9,0.5,2.9c2.7-0.4,9.7-9.5,9.7-9.5c2.4-2.6,4.1-1.1,4.1-1.1s2.1,1.8,0.9,5.9c-1.8,6.5-4.7,12.7-8.7,18.3
			c0,0-6.1,9-15.3,6.5c0,0-0.9-0.2-1.1-0.7c-0.2-0.4-0.1-0.8,0.2-1c0,0,0.5-0.4,1.5,0.2c1.8,0.5,3.7,0.2,5.2-1
			c6.8-4.6,11.3-20.2,11.3-20.2c0.1-0.2,0.1-0.5,0.1-0.8C787.2,407.5,787.2,407.3,786.7,407.8"/>
		<path class="st4" d="M731.1,370.7l0.3,0.1l1.8-2.2l-0.5-0.2c-3.1-1.3-4.9-3.8-5-6.7h4.4V359h-11.9v2.7h4.4c-0.1,2.9-1.9,5.3-5,6.7
			l-0.5,0.2l1.8,2.2l0.3-0.1c2.1-0.9,3.8-2.4,5-4.4C727.2,368.2,729,369.8,731.1,370.7"/>
		<path class="st4" d="M732.8,371.2c-3.4,0-6.2,2.6-6.3,6c0.2,3.5,3.1,6.1,6.6,5.9c3.2-0.2,5.8-2.7,5.9-5.9
			C738.9,373.8,736.1,371.2,732.8,371.2 M732.8,380.5c-1.8,0.1-3.3-1.4-3.4-3.2c-0.1-1.8,1.4-3.3,3.2-3.4c1.8-0.1,3.3,1.4,3.4,3.2
			c0,0,0,0.1,0,0.1c0.1,1.7-1.3,3.2-3.1,3.3C732.8,380.5,732.8,380.5,732.8,380.5"/>
		<polygon class="st4" points="739,358.4 735.9,358.4 735.9,371.5 739,371.5 739,365 743.1,365 743.1,362.3 739,362.3 		"/>
		<path class="st4" d="M758.7,370.7l0.3,0.1l1.8-2.2l-0.5-0.2c-3.6-1.5-5.5-4.2-5.5-7.6v-2.1h-3.1v2.1c0,3.3-2,6-5.5,7.6l-0.5,0.2
			l1.8,2.2l0.2-0.1c2.2-1,4.1-2.6,5.5-4.7C754.5,368,756.4,369.7,758.7,370.7"/>
		<path class="st4" d="M760.6,371.2c-3.4,0-6.2,2.6-6.3,6c0.2,3.5,3.1,6.1,6.6,5.9c3.2-0.2,5.8-2.7,5.9-5.9
			C766.8,373.8,764,371.2,760.6,371.2 M760.6,380.5c-1.8,0.1-3.3-1.3-3.4-3.2c-0.1-1.8,1.3-3.3,3.2-3.4c1.8-0.1,3.3,1.3,3.4,3.2
			c0,0,0,0.1,0,0.1c0.1,1.7-1.3,3.2-3,3.3C760.7,380.5,760.7,380.5,760.6,380.5"/>
		<polygon class="st4" points="763.8,358.4 763.8,362.1 758.8,362.1 758.8,364.8 763.8,364.8 763.8,371.5 766.9,371.5 766.9,358.4 
					"/>
		<path class="st4" d="M791.1,368.1c0.7-2.8,1.1-5.7,1.1-8.6V359H777v2.7H789c-0.1,2.2-0.5,4.3-1.1,6.4h-14.5v2.7h10.4v5.9h3.1v-6
			h8.8V368L791.1,368.1z"/>
		<polygon class="st4" points="780.4,373.6 777.3,373.6 777.3,382.2 792.8,382.2 792.8,379.5 780.4,379.5 		"/>
	</g>
</g>
<g id="레이어_2_2_">
	<g id="레이어_1-2">
		<path class="st5" d="M320.3,350.1v6.1c0,4.2,2,8.2,5.3,10.8l5.6,4.4l-4.8,6.2l-3.3-2.6c-1.6-1.2-5.4-4.1-6.7-6.4
			c-1.3,2.3-5.1,5.2-6.7,6.4l-3.3,2.6l-4.8-6.1l5.6-4.4c3.3-2.6,5.3-6.6,5.3-10.8v-6.2H320.3z"/>
		<polygon class="st5" points="336.2,376.1 344,376.1 344,349.8 336.2,349.8 336.2,358.2 328,358.2 328,365.5 336.2,365.5 		"/>
		<path class="st6" d="M465.9,331.7v6.1c0,4.3,1.9,8.3,5.3,10.9l5.6,4.3l-4.8,6.1l-3.3-2.5c-1.6-1.2-5.4-4.1-6.7-6.4
			c-1.3,2.3-5.1,5.2-6.7,6.4l-3.2,2.5l-4.8-6.1l5.6-4.3c3.3-2.6,5.3-6.6,5.3-10.8v-6.2H465.9z"/>
		<polygon class="st6" points="481.8,357.7 489.5,357.7 489.5,331.4 481.8,331.4 481.8,339.8 473.6,339.8 473.6,347.1 481.8,347.1 
					"/>
		<polygon class="st7" points="388.8,363.2 381,363.2 381,336.9 388.8,336.9 388.8,345.3 397,345.3 397,352.6 388.8,352.6 		"/>
		<path class="st7" d="M373,354.3c-3-2.4-4.9-5.9-5.2-9.8h8.9v-7.2H351v7.2h8.9c-0.3,3.8-2.2,7.4-5.2,9.8l-5.6,4.4l4.8,6.1l3.3-2.6
			c1.6-1.2,5.4-4.1,6.7-6.4c1.3,2.3,5.1,5.2,6.7,6.4l3.3,2.6l4.8-6.1L373,354.3z"/>
		<path class="st5" d="M331.3,410.2c-8.2,0-14.9-6.7-14.9-14.9s6.7-14.9,14.9-14.9c8.2,0,14.9,6.7,14.9,14.9c0,0,0,0,0,0
			C346.2,403.5,339.6,410.2,331.3,410.2z M331.3,388.1c-4,0-7.2,3.2-7.2,7.2s3.2,7.2,7.2,7.2c4,0,7.2-3.2,7.2-7.2l0,0
			C338.5,391.3,335.3,388.1,331.3,388.1L331.3,388.1z"/>
		<path class="st7" d="M375.1,402.8c-9.7,0-17.6-7.9-17.6-17.5c0-9.7,7.9-17.6,17.5-17.6s17.6,7.9,17.6,17.5c0,0,0,0,0,0
			C392.6,395,384.8,402.8,375.1,402.8z M375.1,375.6c-5.4,0-9.7,4.3-9.7,9.7c0,5.4,4.3,9.7,9.7,9.7c5.4,0,9.7-4.3,9.7-9.7
			c0,0,0,0,0,0C384.8,379.9,380.5,375.6,375.1,375.6z"/>
		<polygon class="st8" points="437.9,383.4 430.1,383.4 430.1,357.2 437.9,357.2 437.9,365.6 446.1,365.6 446.1,372.8 437.9,372.8 
					"/>
		<path class="st8" d="M422.1,374.5c-3-2.4-4.9-5.9-5.2-9.8h8.9v-7.2h-25.7v7.2h8.9c-0.3,3.8-2.2,7.4-5.2,9.8l-5.6,4.4l4.8,6.1
			l3.3-2.6c1.6-1.2,5.4-4.1,6.7-6.4c1.3,2.3,5.1,5.2,6.7,6.4l3.3,2.6l4.8-6.1L422.1,374.5z"/>
		<path class="st8" d="M424.6,428.6c-11.2,0-20.3-9.1-20.3-20.3s9.1-20.3,20.3-20.3c11.2,0,20.3,9.1,20.3,20.3
			C444.9,419.5,435.8,428.6,424.6,428.6z M424.6,396.3c-6.7,0-12.1,5.4-12.1,12.1c0,6.7,5.4,12.1,12.1,12.1s12.1-5.4,12.1-12.1
			c0,0,0,0,0,0C436.7,401.7,431.3,396.3,424.6,396.3z"/>
		<path class="st6" d="M473.4,407.3c-12.4,0-22.5-10.1-22.5-22.5s10.1-22.5,22.5-22.5c12.4,0,22.5,10.1,22.5,22.5c0,0,0,0,0,0
			C495.9,397.2,485.8,407.3,473.4,407.3z M473.4,370.5c-7.9,0-14.3,6.4-14.3,14.3c0,7.9,6.4,14.3,14.3,14.3
			c7.9,0,14.3-6.4,14.3-14.3C487.7,376.9,481.3,370.5,473.4,370.5L473.4,370.5z"/>
		<path class="st9" d="M300.4,428.5c-6.8,0-12.2-5.5-12.2-12.2c0-6.8,5.5-12.2,12.2-12.2c6.8,0,12.2,5.5,12.2,12.2c0,0,0,0,0,0
			C312.6,423,307.1,428.5,300.4,428.5z M300.4,410.8c-3,0-5.5,2.5-5.5,5.5c0,3,2.5,5.5,5.5,5.5s5.5-2.5,5.5-5.5l0,0
			C305.8,413.3,303.4,410.8,300.4,410.8z"/>
		<path class="st10" d="M332.4,425.2h2.2v0.6c0,0.4,0.1,0.7,0.2,1c0.2,0.2,0.4,0.4,0.7,0.4c0.2,0,0.4-0.1,0.6-0.2
			c0.2-0.2,0.3-0.5,0.3-0.7v-7.9h2.2v7.9c0.1,0.8-0.3,1.5-0.9,1.9c-0.6,0.4-1.3,0.7-2.1,0.6c-1.3,0-2.1-0.3-2.5-0.7
			c-0.5-0.6-0.7-1.4-0.6-2.2L332.4,425.2z"/>
		<path class="st10" d="M340.2,423.4c0-1.5,0.9-2.2,2.6-2.2c0.8-0.1,1.6,0.1,2.2,0.5c0.5,0.5,0.8,1.2,0.7,1.9v3.8
			c0,0.4,0,0.9,0.1,1.3h-1.9l-0.1-1c-0.3,0.7-1.1,1.2-1.9,1.2c-1.3,0-1.9-0.8-1.9-2.3c-0.1-0.7,0.2-1.4,0.7-1.9
			c0.8-0.5,1.7-0.7,2.6-0.6h0.4v-0.6c0-0.3,0-0.5-0.2-0.8c-0.1-0.2-0.4-0.3-0.6-0.3c-0.2,0-0.5,0.1-0.6,0.3
			c-0.1,0.3-0.2,0.6-0.2,0.8H340.2z M343.7,425.1c-0.5,0-0.9,0-1.3,0.3c-0.3,0.3-0.4,0.6-0.3,1c0,0.8,0.3,1.2,0.7,1.2
			c0.6,0,0.9-0.5,0.9-1.5L343.7,425.1z"/>
		<path class="st10" d="M347.4,428.6v-7.3h2v0.7c0.4-0.6,1.1-0.9,1.8-0.9c0.5,0,0.9,0.1,1.3,0.4c0.4,0.3,0.5,0.7,0.5,1.2v5.8h-2v-5
			c0-0.8-0.3-1.2-0.8-1.2s-0.8,0.4-0.8,1.1v5.1L347.4,428.6z"/>
		<path class="st10" d="M354.5,429.3h2c0,0.7,0.3,1,0.8,1s0.8-0.4,0.8-1.3v-1.4c-0.3,0.6-0.9,0.9-1.6,0.9c-0.6,0.1-1.2-0.2-1.6-0.7
			c-0.4-0.7-0.6-1.6-0.5-2.4v-1c-0.1-0.8,0.1-1.7,0.5-2.4c0.4-0.5,0.9-0.8,1.5-0.7c0.7,0,1.4,0.4,1.7,1v-0.9h1.9v7.6
			c0,1.6-1,2.4-2.9,2.4S354.5,430.7,354.5,429.3z M356.4,425.6c0,0.4,0,0.9,0.2,1.3c0.1,0.2,0.4,0.4,0.7,0.4c0.3,0,0.5-0.2,0.6-0.4
			c0.2-0.5,0.2-1.1,0.2-1.6v-0.5c0-0.6,0-1.3-0.2-1.8c-0.1-0.2-0.3-0.4-0.6-0.4c-0.3,0-0.6,0.2-0.7,0.5c-0.2,0.4-0.2,0.9-0.2,1.3
			C356.4,424.2,356.4,425.6,356.4,425.6z"/>
		<path class="st10" d="M363.4,426.3v0.3c0,0.3,0,0.5,0.2,0.7c0.2,0.2,0.4,0.2,0.6,0.2c0.2,0,0.4,0,0.6-0.2c0.1-0.2,0.2-0.4,0.2-0.6
			c0-0.2-0.1-0.4-0.2-0.6c-0.4-0.3-0.8-0.6-1.3-0.7l-0.4-0.2c-0.5-0.2-0.9-0.5-1.3-0.9c-0.3-0.3-0.5-0.7-0.5-1.1
			c0-0.6,0.2-1.2,0.7-1.5c0.6-0.4,1.4-0.6,2.2-0.5c0.7,0,1.3,0.2,1.9,0.6c0.5,0.3,0.7,0.9,0.7,1.4v0.3h-2c0-0.3,0-0.6-0.2-0.9
			c-0.1-0.1-0.3-0.2-0.5-0.2c-0.2,0-0.4,0.1-0.6,0.2c-0.1,0.2-0.2,0.4-0.2,0.6c0,0.2,0.1,0.4,0.3,0.5c0.3,0.2,0.6,0.4,1,0.5l0.5,0.2
			c0.6,0.2,1,0.6,1.4,1c0.3,0.3,0.4,0.8,0.4,1.2c0,0.6-0.3,1.2-0.8,1.6c-0.6,0.4-1.3,0.6-2,0.6c-0.8,0.1-1.5-0.1-2.2-0.5
			c-0.5-0.4-0.7-1-0.7-1.6v-0.3L363.4,426.3z"/>
		<path class="st10" d="M370,425.3c0,0.6,0,1.1,0.2,1.7c0.1,0.3,0.4,0.6,0.8,0.5c0.6,0,0.9-0.4,0.9-1.3h2c0,0.7-0.2,1.4-0.7,1.8
			c-0.6,0.5-1.4,0.8-2.2,0.7c-0.8,0.1-1.7-0.2-2.3-0.8c-0.5-0.7-0.8-1.6-0.7-2.6v-0.5c0-1.4,0.2-2.4,0.7-2.9
			c0.6-0.6,1.4-0.8,2.2-0.8c0.8-0.1,1.6,0.2,2.2,0.8c0.6,0.7,0.8,1.7,0.7,2.6v0.8L370,425.3z M370,424.2h1.9c0.1-0.5,0-1-0.2-1.4
			c-0.2-0.2-0.4-0.3-0.7-0.3c-0.3,0-0.6,0.1-0.7,0.4C370,423.3,369.9,423.7,370,424.2z"/>
		<path class="st10" d="M375.1,424.9c0-1.4,0.2-2.4,0.7-2.9c1.3-1,3.1-1,4.5,0c0.5,0.5,0.7,1.4,0.7,3c0,1.5-0.2,2.6-0.7,3.1
			c-0.6,0.6-1.4,0.8-2.2,0.8c-0.9,0.1-1.7-0.2-2.3-0.9c-0.5-0.8-0.8-1.7-0.7-2.6L375.1,424.9z M377.2,424.9c0,0.7,0,1.5,0.2,2.2
			c0.1,0.3,0.4,0.6,0.8,0.5c0.3,0,0.6-0.2,0.7-0.5c0.2-0.7,0.2-1.4,0.2-2.2c0-0.7,0-1.3-0.2-1.9c-0.1-0.3-0.4-0.5-0.7-0.5
			c-0.4-0.1-0.7,0.2-0.8,0.5c-0.1,0.5-0.2,1-0.2,1.4L377.2,424.9z"/>
		<path class="st10" d="M382.5,428.6v-7.3h2v0.7c0.4-0.6,1.1-0.9,1.8-0.9c0.5,0,0.9,0.1,1.3,0.4c0.4,0.3,0.5,0.7,0.5,1.2v5.8h-2v-5
			c0-0.8-0.3-1.2-0.8-1.2s-0.8,0.4-0.8,1.1v5.1L382.5,428.6z"/>
		<path class="st10" d="M389.6,429.3h2c0,0.7,0.3,1,0.8,1c0.5,0,0.8-0.4,0.8-1.3v-1.4c-0.3,0.6-0.9,0.9-1.6,0.9
			c-0.6,0.1-1.2-0.2-1.6-0.7c-0.4-0.8-0.6-1.6-0.5-2.4v-1c-0.1-0.8,0.1-1.7,0.5-2.4c0.4-0.5,0.9-0.8,1.5-0.7c0.7,0,1.4,0.4,1.7,1
			v-0.9h1.9v7.6c0,1.6-1,2.4-2.9,2.4S389.6,430.7,389.6,429.3z M391.5,425.6c0,0.4,0,0.9,0.2,1.3c0.1,0.2,0.4,0.4,0.7,0.4
			c0.3,0,0.5-0.2,0.6-0.4c0.2-0.5,0.2-1.1,0.2-1.6v-0.5c0-0.6,0-1.3-0.2-1.8c-0.1-0.2-0.3-0.4-0.6-0.4c-0.3,0-0.6,0.2-0.7,0.5
			c-0.2,0.4-0.2,0.9-0.2,1.3V425.6z"/>
	</g>
</g>
</svg>
